<svg width="30" height="30" viewBox="0 0 30 30" fill="none" xmlns="http://www.w3.org/2000/svg">
<path d="M18.5258 10.6668C18.894 10.2986 19.491 10.2986 19.8592 10.6668C20.2273 11.035 20.2273 11.6319 19.8592 12.0001L12.0001 19.8592C11.6319 20.2274 11.035 20.2274 10.6668 19.8592C10.2986 19.491 10.2986 18.894 10.6668 18.5258L18.5258 10.6668Z" fill="#9D9ABA"/>
<path d="M19.8598 18.5258C20.228 18.894 20.228 19.491 19.8598 19.8592C19.4916 20.2273 18.8947 20.2273 18.5265 19.8592L10.6674 12.0001C10.2992 11.6319 10.2992 11.035 10.6674 10.6668C11.0356 10.2986 11.6326 10.2986 12.0008 10.6668L19.8598 18.5258Z" fill="#9D9ABA"/>
</svg>
