<svg width="5" height="8" viewBox="0 0 5 8" fill="none" xmlns="http://www.w3.org/2000/svg">
<path d="M1.15947 6.96232C0.894223 7.22756 0.464177 7.22756 0.198933 6.96232C-0.0663109 6.69707 -0.0663109 6.26703 0.198933 6.00178L3.08053 3.12018C3.34578 2.85494 3.77582 2.85494 4.04107 3.12018C4.30631 3.38543 4.30631 3.81547 4.04107 4.08072L1.15947 6.96232Z" fill="#9D9ABA"/>
<path d="M0.198933 1.15947C-0.066311 0.894223 -0.066311 0.464177 0.198933 0.198933C0.464177 -0.066311 0.894222 -0.066311 1.15947 0.198933L4.04107 3.08053C4.30631 3.34578 4.30631 3.77582 4.04107 4.04107C3.77582 4.30631 3.34578 4.30631 3.08053 4.04107L0.198933 1.15947Z" fill="#9D9ABA"/>
</svg>
